<?xml version="1.0" encoding="UTF-8" standalone="no"?>
<svg
   xmlns:dc="http://purl.org/dc/elements/1.1/"
   xmlns:cc="http://creativecommons.org/ns#"
   xmlns:rdf="http://www.w3.org/1999/02/22-rdf-syntax-ns#"
   xmlns:svg="http://www.w3.org/2000/svg"
   xmlns="http://www.w3.org/2000/svg"
   xmlns:sodipodi="http://sodipodi.sourceforge.net/DTD/sodipodi-0.dtd"
   xmlns:inkscape="http://www.inkscape.org/namespaces/inkscape"
   width="57.812405mm"
   height="65.852646mm"
   viewBox="0 0 57.812404 65.852648"
   version="1.1"
   id="svg1011"
   inkscape:version="1.0.2-2 (e86c870879, 2021-01-15)"
   sodipodi:docname="head-guara.svg">
  <defs
     id="defs1005" />
  <sodipodi:namedview
     id="base"
     pagecolor="#ffffff"
     bordercolor="#666666"
     borderopacity="1.0"
     inkscape:pageopacity="0.0"
     inkscape:pageshadow="2"
     inkscape:zoom="1.979899"
     inkscape:cx="72.841583"
     inkscape:cy="136.22251"
     inkscape:document-units="mm"
     inkscape:current-layer="layer1"
     inkscape:document-rotation="0"
     showgrid="false"
     inkscape:window-width="1344"
     inkscape:window-height="728"
     inkscape:window-x="0"
     inkscape:window-y="0"
     inkscape:window-maximized="0">
    <inkscape:grid
       type="xygrid"
       id="grid26" />
  </sodipodi:namedview>
  <metadata
     id="metadata1008">
    <rdf:RDF>
      <cc:Work
         rdf:about="">
        <dc:format>image/svg+xml</dc:format>
        <dc:type
           rdf:resource="http://purl.org/dc/dcmitype/StillImage" />
        <dc:title />
      </cc:Work>
    </rdf:RDF>
  </metadata>
  <g
     inkscape:label="Layer 1"
     inkscape:groupmode="layer"
     id="layer1"
     transform="translate(-64.401328,-92.923998)"
     style="opacity:0.1">
    <path
       inkscape:export-ydpi="211.22"
       inkscape:export-xdpi="211.22"
       inkscape:export-filename="D:\Google Drive\IFTO\Pesquisa e Extensão\Projeto - CNPq 17-2014\Material Gráfico\dist\guara1.png"
       style="fill:#ff6600;fill-opacity:1;fill-rule:evenodd;stroke:none;stroke-width:0.264583"
       d="m 70.101086,94.469134 c -4.924819,12.456966 2.751582,27.014136 2.824065,29.476556 0.07267,2.46246 -3.769969,3.04072 -3.769969,3.04072 0.579337,0.65182 2.900993,0.94442 2.900993,0.94442 -1.229839,4.29329 -5.076272,4.33677 -5.076272,4.33677 1.985393,3.7285 3.749354,4.73686 5.494803,5.9184 1.873676,3.01079 4.474691,4.25217 7.613827,6.2054 l 1.25118,1.00108 1.668555,2.33561 1.668632,3.42033 1.501624,3.25375 2.502223,2.08514 2.919666,0.7511 h 4.421373 l 3.420245,-2.1692 1.752109,-3.08627 2.33577,-5.58942 5.25536,-4.33781 c 2.64038,-1.31422 6.33066,-0.60686 5.3551,-3.86971 1.7455,-1.18154 3.50896,-2.1899 5.49423,-5.9184 0,0 -3.84583,-0.0434 -5.07572,-4.33677 0,0 2.32112,-0.29246 2.90056,-0.94442 0,0 -3.84208,-0.57826 -3.76952,-3.04072 0.0722,-2.46242 7.75044,-17.01959 2.82561,-29.476556 -6.51898,0.0623 -16.524785,16.200316 -19.661669,20.489196 0,0 -1.700268,-0.72557 -3.538167,-0.56234 -0.0074,-1.9e-4 -0.01032,2.1e-4 -0.01333,0 -1.837965,-0.16324 -3.538228,0.56234 -3.538228,0.56234 C 86.627149,110.66945 76.62296,94.53157 70.103944,94.469134 Z"
       id="path3874"
       inkscape:connector-curvature="0"
       sodipodi:nodetypes="cccccccccccccccccccccccccccccc" />
    <path
       inkscape:export-ydpi="211.22"
       inkscape:export-xdpi="211.22"
       inkscape:export-filename="D:\Google Drive\IFTO\Pesquisa e Extensão\Projeto - CNPq 17-2014\Material Gráfico\dist\guara1.png"
       style="fill:#ffb870;fill-opacity:1;fill-rule:evenodd;stroke:none;stroke-width:0.264583"
       d="m 75.205124,140.14618 0.237815,1.51274 0.89177,0.39679 3.753723,2.33569 1.251178,1.00108 1.668565,2.33561 1.66864,3.42033 1.501606,3.25375 2.502217,2.08514 0.978313,0.25149 c -5.624541,-4.30115 -6.9724,-14.01926 -14.453928,-16.59266 z m 36.204276,0 c -2.55496,0.87885 -4.39219,2.5938 -5.931,4.63894 l 3.30687,-2.72941 2.46975,-0.9201 0.15458,-0.98943 z m -9.79108,10.82105 c -1.21574,2.02619 -2.505555,3.93801 -4.173909,5.36873 l 1.99762,-1.26675 1.752109,-3.08627 z"
       id="path3876"
       inkscape:connector-curvature="0" />
    <path
       inkscape:export-ydpi="211.22"
       inkscape:export-xdpi="211.22"
       inkscape:export-filename="D:\Google Drive\IFTO\Pesquisa e Extensão\Projeto - CNPq 17-2014\Material Gráfico\dist\guara1.png"
       style="fill:none;stroke:none;stroke-width:0.264583"
       d="m 70.824785,96.2804 c 0,0 6.66047,4.64317 15.979611,23.02119 -4.028607,-0.22981 4.198641,7.95451 0.170206,12.16066 C 82.380758,122.11697 68.351661,104.6739 70.824915,96.2804 Z"
       id="path3878"
       inkscape:connector-curvature="0"
       sodipodi:nodetypes="cccc" />
    <path
       inkscape:export-ydpi="211.22"
       inkscape:export-xdpi="211.22"
       inkscape:export-filename="D:\Google Drive\IFTO\Pesquisa e Extensão\Projeto - CNPq 17-2014\Material Gráfico\dist\guara1.png"
       inkscape:connector-curvature="0"
       id="path3880"
       d="m 88.967087,120.24593 c 0.641268,1.05682 0.633838,2.90078 0.633838,2.90078 0,0 -2.145194,-1.95417 -4.387053,-1.35777 0,0 1.73501,2.05707 1.63975,2.82905 0,0 -2.198561,-1.43209 -4.874226,-0.7106 0,0 2.118675,3.23314 2.148586,4.4388 0,0 -1.51639,0.83785 -3.417991,0.12653 0,0 6.234729,7.88352 12.597435,7.31622 6.363157,0.56858 12.597404,-7.31622 12.597404,-7.31622 -1.90162,0.71109 -3.41786,-0.12653 -3.41786,-0.12653 0.0299,-1.20566 2.14849,-4.4388 2.14849,-4.4388 -2.67573,-0.72149 -4.87426,0.7106 -4.87426,0.7106 -0.09486,-0.77198 1.63978,-2.82905 1.63978,-2.82905 -2.241889,-0.5964 -4.385385,1.35777 -4.385385,1.35777 0,0 -0.01035,-1.84396 0.63214,-2.90078 0,0 -2.640092,0.11424 -4.340309,2.66061 -1.700282,-2.5465 -4.340339,-2.66061 -4.340339,-2.66061 z"
       style="fill:#d85000;fill-opacity:1;fill-rule:evenodd;stroke:none;stroke-width:0.264583" />
    <path
       inkscape:export-ydpi="211.22"
       inkscape:export-xdpi="211.22"
       inkscape:export-filename="D:\Google Drive\IFTO\Pesquisa e Extensão\Projeto - CNPq 17-2014\Material Gráfico\dist\guara1.png"
       style="fill:#2b1100;fill-opacity:1;fill-rule:evenodd;stroke:none;stroke-width:0.264583"
       d="m 80.358352,129.43051 c 0,0 2.099646,7.13195 6.811135,6.00527 0,0 -0.204862,4.50662 -0.66583,5.01877 0,0 3.892151,-4.30177 2.304593,-11.62505 0,0 -0.614556,2.04846 -0.973085,2.15089 0,0 -3.37434,-0.57157 -7.476813,-1.54988 z"
       id="path3882"
       inkscape:connector-curvature="0"
       sodipodi:nodetypes="cccccc" />
    <path
       inkscape:export-ydpi="211.22"
       inkscape:export-xdpi="211.22"
       inkscape:export-filename="D:\Google Drive\IFTO\Pesquisa e Extensão\Projeto - CNPq 17-2014\Material Gráfico\dist\guara1.png"
       sodipodi:nodetypes="ccccccccc"
       inkscape:connector-curvature="0"
       id="path3884"
       d="m 91.380777,146.55003 c -0.832675,0.1985 -1.722257,0.58366 -2.258597,1.32775 0,0 -0.236503,2.73429 1.104294,4.0218 0,0 1.143918,1.03752 2.929144,1.151 0.187177,0.007 0.255455,-0.007 0.303766,0 1.785204,-0.11322 2.929122,-1.151 2.929122,-1.151 1.340679,-1.28751 1.104313,-4.0218 1.104313,-4.0218 -0.536387,-0.74409 -1.425866,-1.12953 -2.258586,-1.32775 -1.307558,-0.26314 -2.75231,-0.25481 -3.853273,0 z"
       style="fill:#2b1100;fill-opacity:1;fill-rule:evenodd;stroke:none;stroke-width:0.264583" />
    <path
       sodipodi:nodetypes="cccccccc"
       inkscape:connector-curvature="0"
       id="path3886"
       d="m 70.990446,96.635831 c 0,0 0.764823,6.638489 3.567578,8.741089 l -2.103609,-0.6441 c 0.01032,0.0348 2.508655,8.86912 7.864811,8.7699 l 2.117013,1.42774 0.787736,-4.67705 -6.400247,-7.33565 z"
       style="fill:#d85000;fill-opacity:1;fill-rule:evenodd;stroke:none;stroke-width:0.264583"
       inkscape:export-filename="D:\Google Drive\IFTO\Pesquisa e Extensão\Projeto - CNPq 17-2014\Material Gráfico\dist\guara1.png"
       inkscape:export-xdpi="211.22"
       inkscape:export-ydpi="211.22" />
    <path
       inkscape:export-ydpi="211.22"
       inkscape:export-xdpi="211.22"
       inkscape:export-filename="D:\Google Drive\IFTO\Pesquisa e Extensão\Projeto - CNPq 17-2014\Material Gráfico\dist\guara1.png"
       style="fill:#2b1100;fill-opacity:1;fill-rule:evenodd;stroke:none;stroke-width:0.264583"
       d="m 79.893927,119.13565 c -5.057492,1.41316 -5.813433,6.5896 -6.281008,9.90717 0.498949,-1.57446 3.74527,-8.28801 13.797039,-9.5142 0,0 -5.287025,-18.75786 -16.512764,-23.175729 0,0 0.869098,6.590589 5.866349,8.473609 0,0 -3.114243,0.94149 -4.562721,-0.79666 0,0 2.534904,7.6045 10.066991,7.6045 -1.741048,2.77712 -4.66458,3.58337 -9.300316,1.53592 1.668,2.21118 2.395104,5.20643 6.92643,5.96539 z"
       id="path3888"
       inkscape:connector-curvature="0"
       sodipodi:nodetypes="ccccccccc" />
    <path
       sodipodi:nodetypes="cccccc"
       inkscape:connector-curvature="0"
       id="path3890"
       d="m 82.867825,141.62869 c -5.381445,-4.60561 -10.167099,-3.57851 -15.909348,-9.39941 0,0 2.05391,5.63967 9.817155,8.32019 l 8.111313,8.18096 -0.626647,-5.18705 z"
       style="fill:#d85000;fill-opacity:1;fill-rule:evenodd;stroke:none;stroke-width:0.264583"
       inkscape:export-filename="D:\Google Drive\IFTO\Pesquisa e Extensão\Projeto - CNPq 17-2014\Material Gráfico\dist\guara1.png"
       inkscape:export-xdpi="211.22"
       inkscape:export-ydpi="211.22" />
    <path
       style="fill:#d85000;fill-opacity:1;fill-rule:evenodd;stroke:none;stroke-width:0.264583"
       d="m 103.75882,141.62869 c 5.3814,-4.60561 10.16713,-3.57851 15.90934,-9.39941 0,0 -2.05395,5.63967 -9.81716,8.32019 l -8.11132,8.18096 0.62662,-5.18705 z"
       id="path3892"
       inkscape:connector-curvature="0"
       sodipodi:nodetypes="cccccc"
       inkscape:export-filename="D:\Google Drive\IFTO\Pesquisa e Extensão\Projeto - CNPq 17-2014\Material Gráfico\dist\guara1.png"
       inkscape:export-xdpi="211.22"
       inkscape:export-ydpi="211.22" />
    <path
       inkscape:connector-curvature="0"
       id="path3894"
       d="m 85.931708,151.11628 c 0,0 6.400215,7.04024 14.818962,-0.0983 l -0.935455,3.39704 -5.169331,2.9047 -5.907916,-0.83694 -2.46159,-2.85547 z"
       style="fill:#d85000;fill-opacity:1;fill-rule:evenodd;stroke:none;stroke-width:0.264583"
       inkscape:export-filename="D:\Google Drive\IFTO\Pesquisa e Extensão\Projeto - CNPq 17-2014\Material Gráfico\dist\guara1.png"
       inkscape:export-xdpi="211.22"
       inkscape:export-ydpi="211.22" />
    <path
       inkscape:export-ydpi="211.22"
       inkscape:export-xdpi="211.22"
       inkscape:export-filename="D:\Google Drive\IFTO\Pesquisa e Extensão\Projeto - CNPq 17-2014\Material Gráfico\dist\guara1.png"
       style="fill:#2b1100;fill-opacity:1;fill-rule:evenodd;stroke:#ffffff;stroke-width:0;stroke-linecap:butt;stroke-linejoin:miter;stroke-miterlimit:4;stroke-dasharray:none;stroke-opacity:0"
       d="m 69.650641,92.92446 c -0.245835,-0.0011 -0.490175,0.0074 -0.732316,0.03508 -2.468385,6.570824 -2.297031,14.30748 -0.889257,20.38091 0.676712,2.83726 1.508146,5.33224 2.165104,7.24943 1.043355,4.0164 0.554855,4.6398 -3.682907,5.63651 0.767868,1.38018 1.974929,2.65832 3.419739,3.03262 -1.422889,1.39581 -3.089235,1.71535 -5.529675,1.2556 l 1.776426,3.33628 c 2.535295,5.24556 6.831504,6.85122 11.249204,9.72875 9.370645,6.15444 4.422651,11.556 12.315061,14.13921 2.567392,0.97252 4.934473,0.76413 7.413852,-0.12017 6.909298,-2.53603 2.929038,-7.70683 9.965948,-13.33814 3.58345,-2.69709 7.22738,-3.55853 10.48357,-6.52523 0.87004,-0.80095 1.80531,-1.95635 2.83188,-3.88439 l 1.77646,-3.33625 c -2.44043,0.45974 -4.10682,0.13999 -5.52967,-1.25562 1.4448,-0.37425 2.65137,-1.65239 3.41923,-3.03257 -4.23781,-0.99675 -4.72621,-1.62017 -3.68295,-5.63655 0.65701,-1.91719 1.48838,-4.4122 2.16509,-7.24947 1.40779,-6.07341 1.57929,-13.810011 -0.88924,-20.380885 -0.24215,-0.02662 -0.48604,-0.0382 -0.73172,-0.03508 -7.61844,0.108029 -16.87146,14.534105 -20.801531,20.103555 -1.973483,-0.3334 -3.788852,-0.43383 -5.707788,0 C 86.525089,107.45858 77.272062,93.032452 69.653689,92.924494 Z m 0.451972,1.544674 c 6.518931,0.0623 16.52316,16.200316 19.660153,20.489196 2.385015,-0.53798 4.407662,-0.86062 7.089523,0 3.137019,-4.28888 13.140701,-20.42676 19.659681,-20.489196 4.9249,12.456966 -2.75142,27.015626 -2.82404,29.478126 -0.0727,2.46239 3.76996,3.03761 3.76996,3.03761 -0.57939,0.65179 -2.9005,0.94596 -2.9005,0.94596 1.2298,4.29333 5.07574,4.33677 5.07574,4.33677 -2.0605,3.78416 -4.92695,5.72485 -9.81188,7.57338 -4.12905,2.02496 -6.16368,4.41475 -7.4028,6.73426 -0.42572,-3.89045 3.42579,-5.68158 3.01589,-9.7466 -0.47505,1.26682 -3.0958,4.68855 -3.0958,4.68855 -1.82595,2.26074 -1.90156,6.95614 -1.84332,8.97577 0.11751,0.60109 -0.11779,1.12353 -0.31941,1.61705 -1.007623,2.32013 -2.48362,3.96543 -6.860217,4.10503 -0.01032,-1.3e-4 -0.01032,1.3e-4 -0.01328,0 -4.368432,-0.13956 -5.846794,-1.77827 -6.8542,-4.09138 -0.373827,-0.63354 -0.340913,-1.27061 -0.319426,-1.88774 0.04262,-2.1375 -0.09856,-6.54923 -1.850843,-8.71873 0,0 -2.620804,-3.42173 -3.095821,-4.68855 -0.409887,4.06502 3.441613,5.85615 3.01589,9.7466 -1.239038,-2.31951 -3.273805,-4.7093 -7.402859,-6.73426 -4.884896,-1.84853 -7.751302,-3.78922 -9.811813,-7.57338 0,0 3.846388,-0.0434 5.076193,-4.33677 0,0 -2.321552,-0.29411 -2.900932,-0.94596 0,0 3.842359,-0.57522 3.769945,-3.03761 -0.07266,-2.4625 -7.748886,-17.02116 -2.824083,-29.478126 z"
       id="path3896"
       inkscape:connector-curvature="0"
       sodipodi:nodetypes="cccccccccccccscccccccccccccccsccccccccccccccccccccccc" />
    <path
       inkscape:export-ydpi="211.22"
       inkscape:export-xdpi="211.22"
       inkscape:export-filename="D:\Google Drive\IFTO\Pesquisa e Extensão\Projeto - CNPq 17-2014\Material Gráfico\dist\guara1.png"
       inkscape:connector-curvature="0"
       id="path3898"
       d="m 85.484128,132.12121 a 1.230664,1.230664 0 0 0 -0.04796,0.38183 1.230664,1.230664 0 0 0 1.275919,1.18428 1.230664,1.230664 0 0 0 1.182955,-1.18053 l -2.411212,-0.38558 z"
       style="fill:#ffffff;fill-opacity:1;stroke:none;stroke-width:0.264583" />
    <path
       inkscape:export-ydpi="211.22"
       inkscape:export-xdpi="211.22"
       inkscape:export-filename="D:\Google Drive\IFTO\Pesquisa e Extensão\Projeto - CNPq 17-2014\Material Gráfico\dist\guara1.png"
       sodipodi:nodetypes="cccc"
       inkscape:connector-curvature="0"
       id="path3900"
       d="m 115.79021,96.2804 c 0,0 -6.66048,4.64317 -15.979654,23.02119 4.028634,-0.22981 -4.198628,7.95451 -0.170207,12.16066 4.593801,-9.34528 18.622881,-26.78835 16.149691,-35.18185 z"
       style="fill:none;stroke:none;stroke-width:0.264583" />
    <path
       inkscape:export-ydpi="211.22"
       inkscape:export-xdpi="211.22"
       inkscape:export-filename="D:\Google Drive\IFTO\Pesquisa e Extensão\Projeto - CNPq 17-2014\Material Gráfico\dist\guara1.png"
       sodipodi:nodetypes="cccccc"
       inkscape:connector-curvature="0"
       id="path3902"
       d="m 106.25669,129.43051 c 0,0 -2.09975,7.13195 -6.811151,6.00527 0,0 0.204833,4.50662 0.665741,5.01877 0,0 -3.892136,-4.30177 -2.304475,-11.62505 0,0 0.614426,2.04846 0.972984,2.15089 0,0 3.374441,-0.57157 7.476901,-1.54988 z"
       style="fill:#2b1100;fill-opacity:1;fill-rule:evenodd;stroke:none;stroke-width:0.264583" />
    <path
       style="fill:#d85000;fill-opacity:1;fill-rule:evenodd;stroke:none;stroke-width:0.264583"
       d="m 115.56488,96.635831 c 0,0 -0.76486,6.638489 -3.56763,8.741089 l 2.10361,-0.6441 c -0.0103,0.0348 -2.50874,8.86912 -7.86482,8.7699 l -2.11701,1.42774 -0.7877,-4.67705 6.40019,-7.33565 z"
       id="path3904"
       inkscape:connector-curvature="0"
       sodipodi:nodetypes="cccccccc"
       inkscape:export-filename="D:\Google Drive\IFTO\Pesquisa e Extensão\Projeto - CNPq 17-2014\Material Gráfico\dist\guara1.png"
       inkscape:export-xdpi="211.22"
       inkscape:export-ydpi="211.22" />
    <path
       inkscape:export-ydpi="211.22"
       inkscape:export-xdpi="211.22"
       inkscape:export-filename="D:\Google Drive\IFTO\Pesquisa e Extensão\Projeto - CNPq 17-2014\Material Gráfico\dist\guara1.png"
       sodipodi:nodetypes="ccccccccc"
       inkscape:connector-curvature="0"
       id="path3906"
       d="m 106.721,119.13565 c 5.05755,1.41316 5.81343,6.5896 6.28101,9.90717 -0.49885,-1.57446 -3.74521,-8.28801 -13.796959,-9.5142 0,0 5.286939,-18.75786 16.512749,-23.175729 0,0 -0.86914,6.590589 -5.86639,8.473609 0,0 3.11432,0.94149 4.56272,-0.79666 0,0 -2.53484,7.6045 -10.06696,7.6045 1.74099,2.77712 4.66456,3.58337 9.30026,1.53592 -1.66793,2.21118 -2.39513,5.20643 -6.92643,5.96539 z"
       style="fill:#2b1100;fill-opacity:1;fill-rule:evenodd;stroke:none;stroke-width:0.264583" />
    <path
       inkscape:export-ydpi="211.22"
       inkscape:export-xdpi="211.22"
       inkscape:export-filename="D:\Google Drive\IFTO\Pesquisa e Extensão\Projeto - CNPq 17-2014\Material Gráfico\dist\guara1.png"
       style="fill:#ffffff;fill-opacity:1;stroke:none;stroke-width:0.264583"
       d="m 101.1309,132.12121 a 1.230664,1.230664 0 0 1 0.048,0.38183 1.230664,1.230664 0 0 1 -1.275877,1.18428 1.230664,1.230664 0 0 1 -1.183011,-1.18053 l 2.411208,-0.38558 z"
       id="path3908"
       inkscape:connector-curvature="0" />
    <path
       style="fill:#ff8c26;fill-opacity:1;fill-rule:evenodd;stroke:none;stroke-width:0.264583"
       d="m 67.366729,134.68422 c 2.513377,4.57325 6.434508,6.19479 10.454904,8.94577 1.254347,1.00319 2.096892,2.07459 2.909165,3.01828 1.259671,1.46348 1.782673,2.85685 2.218283,4.18196 0.878038,2.67117 1.408917,5.08093 6.891128,7.29116 2.502797,0.99596 4.801447,0.77829 7.218434,-0.12727 5.913117,-2.14474 4.839137,-4.63946 7.021637,-9.33059 1.27775,-3.05825 3.50688,-5.10953 6.29497,-6.67099 2.29125,-1.28077 4.54548,-2.34989 6.62954,-4.34454 0.66766,-0.64575 1.37241,-1.53086 2.12732,-2.83648 -0.52992,0.7384 -1.04347,1.31829 -1.52731,1.76371 -1.39929,1.27487 -2.87508,2.15366 -4.38198,2.96372 -1.99974,1.07501 -4.06574,2.02567 -6.1093,3.56378 -7.03693,5.63127 -3.05463,10.7917 -9.963963,13.32775 -2.479358,0.88428 -4.832864,1.09981 -7.400272,0.12727 -7.892375,-2.58323 -2.957039,-7.9915 -12.327683,-14.14594 -3.795737,-2.47242 -7.481038,-4.01773 -10.054873,-7.72754 z"
       id="path3910"
       inkscape:connector-curvature="0"
       sodipodi:nodetypes="ccsccccccccscccccc"
       inkscape:export-filename="D:\Google Drive\IFTO\Pesquisa e Extensão\Projeto - CNPq 17-2014\Material Gráfico\dist\guara1.png"
       inkscape:export-xdpi="211"
       inkscape:export-ydpi="211" />
  </g>
</svg>
